<svg xmlns="http://www.w3.org/2000/svg" width="57" height="56" viewBox="0 0 57 56"><defs><style>.a{fill:#ebebeb;opacity:0.6;}</style></defs><g transform="translate(-569 -1007)"><path class="a" d="M28.5,0A28.253,28.253,0,0,1,57,28,28.253,28.253,0,0,1,28.5,56,28.253,28.253,0,0,1,0,28,28.253,28.253,0,0,1,28.5,0Z" transform="translate(569 1007)"/><path d="M16.2,16.394l.809-5.275H11.945V7.7a2.637,2.637,0,0,1,2.974-2.85h2.3V.356A28.059,28.059,0,0,0,13.135,0C8.967,0,6.243,2.526,6.243,7.1v4.02H1.609v5.275H6.243V29.145h5.7V16.394Z" transform="translate(588.021 1020.177)"/></g></svg>