<svg xmlns="http://www.w3.org/2000/svg" width="57" height="56" viewBox="0 0 57 56"><defs><style>.a{fill:#ebebeb;opacity:0.6;}</style></defs><g transform="translate(-404 -1007)"><ellipse class="a" cx="28.5" cy="28" rx="28.5" ry="28" transform="translate(404 1007)"/><path d="M21.426,13.546A8.956,8.956,0,0,1,21.6,15.3c0,6.035-4.048,10.313-10.14,10.313a10.558,10.558,0,1,1,0-21.116A10.085,10.085,0,0,1,18.53,7.266l-2.866,2.751a5.928,5.928,0,0,0-4.206-1.628,6.67,6.67,0,0,0,0,13.338,5.719,5.719,0,0,0,5.992-4.552H11.458v-3.63h9.968Zm10.2.354V10.835h-3.08V13.9H25.477v3.08h3.065v3.065h3.08V16.979h3.065V13.9H31.621Z" transform="translate(414.807 1020.442)"/></g></svg>