<svg xmlns="http://www.w3.org/2000/svg" width="57" height="56" viewBox="0 0 57 56"><defs><style>.a{fill:#ebebeb;opacity:0.6;}</style></defs><g transform="translate(-482 -1007)"><path class="a" d="M28.5,0A28.253,28.253,0,0,1,57,28,28.253,28.253,0,0,1,28.5,56,28.253,28.253,0,0,1,0,28,28.253,28.253,0,0,1,28.5,0Z" transform="translate(482 1007)"/><path d="M25.535,9.142c.018.253.018.506.018.758,0,7.711-5.869,16.6-16.6,16.6A16.484,16.484,0,0,1,0,23.878a12.067,12.067,0,0,0,1.409.072A11.682,11.682,0,0,0,8.65,21.458,5.843,5.843,0,0,1,3.2,17.412a7.356,7.356,0,0,0,1.1.09,6.169,6.169,0,0,0,1.535-.2,5.834,5.834,0,0,1-4.677-5.725v-.072a5.874,5.874,0,0,0,2.637.74,5.842,5.842,0,0,1-1.806-7.8,16.58,16.58,0,0,0,12.027,6.1,6.585,6.585,0,0,1-.144-1.336A5.839,5.839,0,0,1,23.964,5.223a11.484,11.484,0,0,0,3.7-1.409A5.817,5.817,0,0,1,25.1,7.029a11.693,11.693,0,0,0,3.359-.9,12.539,12.539,0,0,1-2.925,3.016Z" transform="translate(496.27 1020.062)"/></g></svg>