<svg xmlns="http://www.w3.org/2000/svg" width="510" height="512" viewBox="0 0 510 512">
  <g id="team-work" transform="translate(-1)">
    <g id="Group_13852" data-name="Group 13852">
      <path id="Path_40667" data-name="Path 40667" d="M162.67,373.1c7,0,21.863,4.711,37.78,10.628a2.008,2.008,0,0,0,2.705-1.883V324.906a15.062,15.062,0,0,0-15.062-15.062h-56a2.008,2.008,0,0,1-1.886-2.7c5.5-15.015,9.76-28.777,9.76-35.427a34.062,34.062,0,1,0-68.124,0c0,6.65,4.256,20.412,9.76,35.427a2.008,2.008,0,0,1-1.886,2.7H23.592A15.062,15.062,0,0,0,8.53,324.906v164.5a15.062,15.062,0,0,0,15.062,15.062h164.5a15.062,15.062,0,0,0,15.062-15.062V432.473a2.008,2.008,0,0,0-2.705-1.883c-15.917,5.918-30.784,10.628-37.78,10.628a34.062,34.062,0,1,1,0-68.123Z" fill="#ffb000"/>
    </g>
    <g id="Group_13853" data-name="Group 13853">
      <path id="Path_40668" data-name="Path 40668" d="M241.316,70.841c-6.65,0-20.412,4.256-35.427,9.76a2.008,2.008,0,0,1-2.7-1.886V22.593A15.062,15.062,0,0,0,188.13,7.531H23.629A15.062,15.062,0,0,0,8.567,22.593v164.5a15.062,15.062,0,0,0,15.062,15.062H80.563a2.008,2.008,0,0,0,1.883-2.705c-5.918-15.917-10.628-30.784-10.628-37.78a34.062,34.062,0,0,1,68.124,0c0,7-4.711,21.863-10.628,37.78a2.008,2.008,0,0,0,1.883,2.705h56.934a15.062,15.062,0,0,0,15.062-15.062v-56a2.008,2.008,0,0,1,2.7-1.886c15.015,5.5,28.777,9.76,35.427,9.76a34.062,34.062,0,1,0,0-68.123Z" fill="#ffb000"/>
    </g>
    <g id="Group_13854" data-name="Group 13854">
      <path id="Path_40669" data-name="Path 40669" d="M488.407,7.531h-164.5a15.062,15.062,0,0,0-15.062,15.062V79.527a2.008,2.008,0,0,0,2.7,1.883c15.917-5.918,30.784-10.628,37.78-10.628a34.062,34.062,0,1,1,0,68.124c-7,0-21.863-4.711-37.78-10.628a2.008,2.008,0,0,0-2.7,1.883V187.1a15.062,15.062,0,0,0,15.062,15.062h56a2.008,2.008,0,0,1,1.886,2.7c-5.5,15.015-9.76,28.777-9.76,35.427a34.062,34.062,0,0,0,68.124,0c0-6.65-4.256-20.412-9.76-35.427a2.008,2.008,0,0,1,1.886-2.7h56.123A15.062,15.062,0,0,0,503.47,187.1V22.593A15.064,15.064,0,0,0,488.407,7.531Z" fill="#ffb000"/>
    </g>
    <g id="Group_13855" data-name="Group 13855">
      <path id="Path_40670" data-name="Path 40670" d="M431.436,309.845a2.008,2.008,0,0,0-1.883,2.7c5.918,15.917,10.628,30.784,10.628,37.78a34.062,34.062,0,0,1-68.124,0c0-7,4.711-21.863,10.628-37.78a2.008,2.008,0,0,0-1.883-2.7H323.868a15.062,15.062,0,0,0-15.062,15.062v56a2.008,2.008,0,0,1-2.7,1.886c-15.015-5.5-28.777-9.76-35.427-9.76a34.062,34.062,0,0,0,0,68.124c6.65,0,20.412-4.256,35.427-9.76a2.008,2.008,0,0,1,2.7,1.886v56.122a15.062,15.062,0,0,0,15.062,15.062h164.5a15.062,15.062,0,0,0,15.062-15.062v-164.5a15.062,15.062,0,0,0-15.062-15.062H431.436Z" fill="#ffb000"/>
    </g>
    <g id="Group_13858" data-name="Group 13858">
      <g id="Group_13856" data-name="Group 13856">
        <path id="Path_40671" data-name="Path 40671" d="M200.45,430.59c-7.742,2.878-15.227,5.465-21.687,7.369v27.056A15.062,15.062,0,0,1,163.7,480.077H8.531v9.33a15.062,15.062,0,0,0,15.062,15.062h164.5a15.062,15.062,0,0,0,15.062-15.062V432.473a2.009,2.009,0,0,0-2.706-1.883Z" fill="#d49304"/>
      </g>
      <g id="Group_13857" data-name="Group 13857">
        <path id="Path_40672" data-name="Path 40672" d="M188.093,309.845h-9.33v66.509c6.46,1.9,13.945,4.491,21.687,7.369a2.008,2.008,0,0,0,2.705-1.883V324.906A15.062,15.062,0,0,0,188.093,309.845Z" fill="#d49304"/>
      </g>
    </g>
    <g id="Group_13860" data-name="Group 13860">
      <g id="Group_13859" data-name="Group 13859">
        <path id="Path_40673" data-name="Path 40673" d="M249.894,71.932a34.085,34.085,0,0,1-32.971,42.64c-6.65,0-20.412-4.256-35.427-9.76a2.008,2.008,0,0,0-2.7,1.886v56a15.062,15.062,0,0,1-15.062,15.062H136.681c-1.9,6.46-4.491,13.945-7.369,21.687a2.008,2.008,0,0,0,1.883,2.705h56.934a15.062,15.062,0,0,0,15.062-15.062v-56a2.008,2.008,0,0,1,2.7-1.886c15.015,5.5,28.777,9.76,35.427,9.76a34.065,34.065,0,0,0,8.579-67.032Z" fill="#d49304"/>
      </g>
    </g>
    <g id="Group_13862" data-name="Group 13862">
      <g id="Group_13861" data-name="Group 13861">
        <path id="Path_40674" data-name="Path 40674" d="M488.407,7.531h-9.33V162.7a15.062,15.062,0,0,1-15.062,15.062H407.893a2.008,2.008,0,0,0-1.886,2.7c5.5,15.015,9.76,28.777,9.76,35.427a34.086,34.086,0,0,1-42.641,32.971,34.066,34.066,0,0,0,67.033-8.579c0-6.65-4.256-20.412-9.76-35.427a2.008,2.008,0,0,1,1.886-2.7h56.122a15.062,15.062,0,0,0,15.062-15.062V22.593A15.062,15.062,0,0,0,488.407,7.531Z" fill="#d49304"/>
      </g>
    </g>
    <g id="Group_13864" data-name="Group 13864">
      <g id="Group_13863" data-name="Group 13863">
        <path id="Path_40675" data-name="Path 40675" d="M488.37,309.845h-9.33v155.17a15.062,15.062,0,0,1-15.062,15.062H308.808v9.33a15.062,15.062,0,0,0,15.062,15.062h164.5a15.062,15.062,0,0,0,15.062-15.062v-164.5A15.062,15.062,0,0,0,488.37,309.845Z" fill="#d49304"/>
      </g>
    </g>
    <g id="Group_13865" data-name="Group 13865">
      <path id="Path_40676" data-name="Path 40676" d="M188.094,512H23.593A22.619,22.619,0,0,1,1,489.407v-164.5a22.619,22.619,0,0,1,22.593-22.593H71.877c-6.72-19.362-7.567-26.7-7.567-30.593a41.592,41.592,0,0,1,83.184,0c0,3.89-.846,11.234-7.566,30.593h48.165a22.618,22.618,0,0,1,22.592,22.593v56.934a9.537,9.537,0,0,1-12.854,8.944c-23.773-8.838-32.234-10.158-35.161-10.158a26.531,26.531,0,1,0,0,53.062c2.927,0,11.388-1.32,35.156-10.157a9.538,9.538,0,0,1,12.859,8.943v56.934A22.617,22.617,0,0,1,188.094,512ZM23.593,317.376a7.539,7.539,0,0,0-7.531,7.531v164.5a7.539,7.539,0,0,0,7.531,7.531h164.5a7.539,7.539,0,0,0,7.53-7.531V440.356c-21.073,7.46-28.874,8.394-32.953,8.394a41.592,41.592,0,0,1,0-83.184c4.079,0,11.881.934,32.953,8.394V324.908a7.539,7.539,0,0,0-7.53-7.531h-56a9.538,9.538,0,0,1-8.956-12.819c8.092-22.075,9.3-30.048,9.3-32.836a26.531,26.531,0,1,0-53.062,0c0,2.787,1.208,10.758,9.3,32.835a9.54,9.54,0,0,1-8.957,12.82H23.593Z"/>
    </g>
    <g id="Group_13866" data-name="Group 13866">
      <path id="Path_40677" data-name="Path 40677" d="M188.13,209.686H131.2a9.538,9.538,0,0,1-8.942-12.861c8.836-23.766,10.156-32.227,10.156-35.154a26.531,26.531,0,1,0-53.062,0c0,2.927,1.32,11.388,10.157,35.156a9.538,9.538,0,0,1-8.943,12.859H23.629A22.619,22.619,0,0,1,1.036,187.093V22.593A22.619,22.619,0,0,1,23.629,0H60.063a7.531,7.531,0,0,1,0,15.062H23.629A7.539,7.539,0,0,0,16.1,22.593v164.5a7.539,7.539,0,0,0,7.531,7.531H72.681c-7.46-21.074-8.394-28.874-8.394-32.953a41.592,41.592,0,0,1,83.184,0c0,4.079-.934,11.881-8.394,32.953h49.052a7.539,7.539,0,0,0,7.531-7.531v-56a9.538,9.538,0,0,1,12.817-8.956c22.081,8.092,30.052,9.3,32.838,9.3a26.531,26.531,0,1,0,0-53.062c-2.786,0-10.757,1.208-32.836,9.3a9.538,9.538,0,0,1-12.819-8.956V22.593a7.539,7.539,0,0,0-7.531-7.531H95.552A7.531,7.531,0,0,1,95.552,0H188.13a22.619,22.619,0,0,1,22.593,22.593V70.878c19.362-6.721,26.705-7.567,30.593-7.567a41.592,41.592,0,1,1,0,83.184c-3.888,0-11.231-.846-30.593-7.567v48.165a22.619,22.619,0,0,1-22.593,22.593Z"/>
    </g>
    <g id="Group_13867" data-name="Group 13867">
      <path id="Path_40678" data-name="Path 40678" d="M406.1,281.872A41.64,41.64,0,0,1,364.5,240.28c0-3.888.846-11.232,7.567-30.593H323.907a22.619,22.619,0,0,1-22.593-22.593V130.16a9.54,9.54,0,0,1,12.857-8.944c23.771,8.838,32.232,10.158,35.159,10.158a26.531,26.531,0,1,0,0-53.062c-2.927,0-11.388,1.32-35.156,10.157a9.538,9.538,0,0,1-12.859-8.943V22.593A22.617,22.617,0,0,1,323.906,0h164.5A22.618,22.618,0,0,1,511,22.593V134.911a7.531,7.531,0,0,1-15.062,0V22.593a7.539,7.539,0,0,0-7.531-7.531h-164.5a7.539,7.539,0,0,0-7.531,7.531V71.645c21.074-7.46,28.874-8.394,32.953-8.394a41.592,41.592,0,1,1,0,83.184c-4.079,0-11.881-.934-32.953-8.394v49.052a7.539,7.539,0,0,0,7.531,7.531h56a9.538,9.538,0,0,1,8.956,12.819c-8.092,22.078-9.3,30.049-9.3,32.836a26.531,26.531,0,0,0,53.062,0c0-2.787-1.208-10.758-9.3-32.835a9.539,9.539,0,0,1,8.956-12.82h56.123a7.539,7.539,0,0,0,7.531-7.531V170.712a7.531,7.531,0,1,1,15.062,0v16.381a22.619,22.619,0,0,1-22.593,22.593H440.121c6.72,19.361,7.567,26.705,7.567,30.593A41.638,41.638,0,0,1,406.1,281.872Z"/>
    </g>
    <g id="Group_13868" data-name="Group 13868">
      <path id="Path_40679" data-name="Path 40679" d="M488.37,512H439.808a7.531,7.531,0,0,1,0-15.062H488.37a7.539,7.539,0,0,0,7.531-7.531v-164.5a7.539,7.539,0,0,0-7.531-7.531H439.319c7.459,21.076,8.393,28.875,8.393,32.953a41.592,41.592,0,0,1-83.184,0c0-4.079.934-11.881,8.394-32.953H323.87a7.539,7.539,0,0,0-7.531,7.531v56a9.538,9.538,0,0,1-12.818,8.956c-22.08-8.092-30.05-9.3-32.836-9.3a26.531,26.531,0,0,0,0,53.062c2.786,0,10.756-1.208,32.835-9.3a9.538,9.538,0,0,1,12.819,8.956v56.123a7.539,7.539,0,0,0,7.531,7.531h78.723a7.531,7.531,0,1,1,0,15.062H323.869a22.619,22.619,0,0,1-22.593-22.593V441.122c-19.362,6.721-26.7,7.567-30.592,7.567a41.592,41.592,0,0,1,0-83.184c3.888,0,11.23.846,30.592,7.567V324.907a22.619,22.619,0,0,1,22.593-22.593H380.8a9.538,9.538,0,0,1,8.941,12.861c-8.836,23.766-10.156,32.227-10.156,35.154a26.531,26.531,0,0,0,53.062,0c0-2.927-1.319-11.386-10.156-35.156a9.538,9.538,0,0,1,8.942-12.859h56.934a22.619,22.619,0,0,1,22.593,22.593v164.5A22.62,22.62,0,0,1,488.37,512Z"/>
    </g>
  </g>
</svg>
