<svg xmlns="http://www.w3.org/2000/svg" viewBox="0 0 129.07 112.87"><defs><style>.cls-1{fill:#ffb000;}</style></defs><g id="Layer_2" data-name="Layer 2"><g id="Layer_1-2" data-name="Layer 1"><path class="cls-1" d="M129.07,33.83v2.78a7.43,7.43,0,0,0-.28,1.22A32.73,32.73,0,0,1,119.26,59Q93.48,85.25,67.55,111.4c-2,2-4.18,1.95-6.19-.06s-3.78-3.83-5.67-5.75q-22.68-23-45.35-46C1.36,50.47-1.81,39.54,1,27A34,34,0,0,1,31.69.16,32,32,0,0,1,55.5,7.55c2.86,2.38,5.42,5.14,8.07,7.78.69.69,1.15.69,1.83,0,2.11-2.18,4.16-4.42,6.42-6.42C80.4,1.29,90.43-1.59,101.63.84,115.86,3.93,124.27,13.22,128,27A66.93,66.93,0,0,1,129.07,33.83Z"/></g></g></svg>